Coordinates
version=1
nRows=65
nColumns=12
inDegrees=yes

Units are S.I. units (second, meters, Newtons, ...)
Angles are in degrees

endheader
time	SC_y	SC_z	SC_x	AC_y	AC_z	AC_x	GH_y	GH_z	GH_yy	EL_x	PS_y
       0.0              -36.83          27.51          11.78          59.08          -16.9         -9.828          44.24         -3.233         -44.49          22.62           86.6
   0.04084              -36.83          27.51          11.79          59.08          -16.9         -9.827          44.24         -3.222         -44.47          22.63           86.6
   0.08169              -36.83          27.52          11.79          59.07          -16.9         -9.827          44.23          -3.21         -44.44          22.65          86.59
    0.1225              -36.83          27.52           11.8          59.07          -16.9         -9.826          44.23         -3.198         -44.41          22.66          86.58
    0.1634              -36.83          27.52          11.81          59.07          -16.9         -9.825          44.23         -3.185         -44.38          22.67          86.58
    0.2042              -36.83          27.52          11.82          59.07         -16.89         -9.824          44.23         -3.171         -44.34          22.69          86.57
    0.2451              -36.83          27.52          11.83          59.06         -16.89         -9.822          44.22         -3.155          -44.3           22.7          86.56
    0.2859              -36.83          27.52          11.84          59.06         -16.89         -9.821          44.22         -3.139         -44.26          22.72          86.55
    0.3267              -36.83          27.52          11.86          59.06         -16.88          -9.82          44.22         -3.122         -44.22          22.74          86.54
    0.3676              -36.82          27.53          11.87          59.05         -16.88         -9.818          44.21         -3.104         -44.18          22.76          86.53
    0.4084              -36.82          27.53          11.88          59.05         -16.88         -9.817          44.21         -3.084         -44.13          22.78          86.52
    0.4493              -36.82          27.53           11.9          59.05         -16.87         -9.815           44.2         -3.062         -44.07           22.8          86.51
    0.4901              -36.82          27.53          11.91          59.04         -16.87         -9.814           44.2         -3.039         -44.02          22.83          86.49
     0.531              -36.82          27.53          11.93          59.04         -16.86         -9.812          44.19         -3.014         -43.96          22.86          86.48
    0.5718              -36.82          27.54          11.95          59.03         -16.86          -9.81          44.19         -2.987         -43.89          22.88          86.47
    0.6126              -36.81          27.54          11.97          59.03         -16.85         -9.808          44.18         -2.958         -43.82          22.92          86.45
    0.6535              -36.81          27.54          11.99          59.02         -16.85         -9.805          44.17         -2.926         -43.74          22.95          86.43
    0.6943              -36.81          27.55          12.02          59.01         -16.84         -9.803          44.16         -2.891         -43.65          22.99          86.41
    0.7352               -36.8          27.55          12.05          59.01         -16.83           -9.8          44.16         -2.854         -43.56          23.03          86.39
     0.776               -36.8          27.55          12.07           59.0         -16.82         -9.797          44.15         -2.812         -43.46          23.07          86.37
    0.8169               -36.8          27.56          12.11          58.99         -16.81         -9.793          44.14         -2.767         -43.35          23.12          86.34
    0.8577              -36.79          27.56          12.14          58.98          -16.8         -9.789          44.13         -2.717         -43.22          23.17          86.31
    0.8985              -36.79          27.57          12.18          58.97         -16.79         -9.785          44.11         -2.661         -43.09          23.23          86.28
    0.9394              -36.78          27.57          12.22          58.96         -16.78         -9.781           44.1           -2.6         -42.94           23.3          86.25
    0.9802              -36.78          27.58          12.27          58.94         -16.77         -9.776          44.09         -2.532         -42.77          23.37          86.21
     1.021              -36.77          27.59          12.32          58.93         -16.75          -9.77          44.07         -2.456         -42.58          23.45          86.17
     1.062              -36.77           27.6          12.38          58.91         -16.74         -9.764          44.05         -2.371         -42.37          23.54          86.12
     1.103              -36.76          27.61          12.45           58.9         -16.72         -9.756          44.03         -2.275         -42.14          23.65          86.07
     1.144              -36.75          27.62          12.53          58.88          -16.7         -9.748          44.01         -2.167         -41.87          23.76          86.01
     1.184              -36.74          27.63          12.62          58.85         -16.68         -9.739          43.98         -2.044         -41.57          23.89          85.94
     1.225              -36.73          27.64          12.71          58.83         -16.65         -9.729          43.95         -1.904         -41.23          24.04          85.86
     1.266              -36.72          27.66          12.83          58.79         -16.62         -9.716          43.91         -1.743         -40.83          24.21          85.77
     1.307               -36.7          27.67          12.96          58.76         -16.58         -9.702          43.87         -1.557         -40.37          24.41          85.67
     1.348              -36.68           27.7          13.11          58.72         -16.54         -9.686          43.82         -1.341         -39.84          24.64          85.55
     1.389              -36.66          27.72          13.29          58.67         -16.49         -9.667          43.77         -1.089         -39.22          24.91          85.41
     1.429              -36.64          27.75           13.5          58.61         -16.43         -9.645           43.7        -0.7907         -38.49          25.23          85.24
      1.47              -36.61          27.78          13.75          58.55         -16.36         -9.618          43.62        -0.4368         -37.62          25.61          85.04
     1.511              -36.58          27.82          14.05          58.47         -16.28         -9.587          43.53       -0.01263         -36.58          26.06          84.81
     1.552              -36.54          27.87          14.41          58.37         -16.18         -9.548          43.42         0.5006         -35.32          26.61          84.52
     1.593              -36.49          27.93          14.85          58.25         -16.06         -9.501          43.28          1.128         -33.77          27.28          84.17
     1.634              -36.43          28.01          15.39           58.1         -15.91         -9.443          43.11          1.901         -31.87          28.11          83.74
     1.675              -36.35           28.1          16.07          57.92         -15.73         -9.371           42.9          2.866          -29.5          29.14           83.2
     1.715              -36.25          28.22          16.93          57.69         -15.49          -9.28          42.63          4.082         -26.51          30.44          82.52
     1.756              -36.13          28.37          18.02           57.4         -15.19         -9.164          42.29          5.627         -22.71          32.09          81.66
     1.797              -35.97          28.56          19.41          57.02         -14.81         -9.015          41.86          7.605         -17.85           34.2          80.56
     1.838              -35.77          28.81          21.19          56.54         -14.32         -8.825           41.3          10.14         -11.61          36.92          79.14
     1.879              -35.51          29.12          23.48          55.92          -13.7         -8.582          40.59          13.38         -3.644          40.38          77.33
      1.92              -35.19          29.51          26.35          55.15         -12.91         -8.276          39.69          17.46          6.377          44.74          75.06
      1.96              -34.79          29.99          29.84          54.21         -11.95         -7.903           38.6          22.43          18.59          50.05          72.29
     2.001              -34.33          30.55           33.9          53.12         -10.84         -7.472          37.33          28.19          32.74           56.2          69.07
     2.042              -33.83          31.15          38.29          51.93         -9.635         -7.004          35.96          34.42          48.07          62.86           65.6
     2.083              -33.34          31.75          42.68          50.75         -8.431         -6.536          34.59          40.66           63.4          69.53          62.12
     2.124              -32.88          32.31          46.73          49.66          -7.32         -6.104          33.32          46.41          77.55          75.68          58.91
     2.165              -32.48          32.79          50.23          48.71          -6.36         -5.732          32.23          51.38          89.76          80.99          56.13
     2.206              -32.16          33.18           53.1          47.94         -5.573         -5.426          31.34          55.46          99.78          85.35          53.86
     2.246               -31.9           33.5          55.38          47.33         -4.948         -5.183          30.62           58.7          107.8          88.81          52.05
     2.287               -31.7          33.74          57.17          46.84         -4.458         -4.993          30.07          61.24          114.0          91.52          50.64
     2.328              -31.54          33.93          58.56          46.47         -4.076         -4.844          29.63          63.21          118.9          93.64          49.53
     2.369              -31.42          34.08          59.65          46.18         -3.777         -4.728          29.29          64.76          122.7          95.29          48.67
      2.41              -31.32           34.2           60.5          45.95         -3.543         -4.637          29.02          65.98          125.6          96.59          47.99
     2.451              -31.24          34.29          61.18          45.76         -3.356         -4.565          28.81          66.94          128.0          97.62          47.45
     2.491              -31.18          34.37          61.73          45.62         -3.207         -4.507          28.64          67.71          129.9          98.45          47.02
     2.532              -31.13          34.43          62.17           45.5         -3.086          -4.46           28.5          68.34          131.5          99.12          46.67
     2.573              -31.09          34.48          62.53           45.4         -2.987         -4.421          28.39          68.85          132.7          99.66          46.39
     2.614              -31.06          34.52          62.83          45.32         -2.905         -4.389           28.3          69.28          133.8          100.1          46.15
